# xmcd
#
# Track frame offsets: 
#        182
#        10035
#        17997
#        28537
#        39300
#        53977
#        64917
#        76157
#        89412
#        102690
#        121407
#        134030
#        154352
#        165120
#        187805
#        201977
#        219047
#        232460
#        251950
#        279025
#
# Disc length: 4075 seconds
#
# Revision: 4
# Processed by: cddbd v1.5.2PL0 Copyright (c) Steve Scherf et al.
# Submitted via: ExactAudioCopyFreeDBPlugin 1.0
#
DISCID=150fe914
DTITLE=James Brown - Soul Pride:  The Instrumentals, 1960-1969
DYEAR=1993
DGENRE=Rhythm and Blues
TTITLE0=Hold It
TTITLE1=The Scratch
TTITLE2=Suds
TTITLE3=Cross Firing
TTITLE4=Limbo Jimbo
TTITLE5=Joggin' Along
TTITLE6=Doin' the Limbo
TTITLE7=Choo-Choo (Locomotion)
TTITLE8=(Can You) Feel It, Pt. 1
TTITLE9=Soul Food, Pts. 1 and 2
TTITLE10=Evil
TTITLE11=Infatuation
TTITLE12=Headache
TTITLE13=Every Beat of My Heart
TTITLE14=Try Me
TTITLE15=New Breed
TTITLE16=Jabo
TTITLE17=Fat Bag
TTITLE18=Sumpin' Else
TTITLE19=Devil's Den (live)
EXTD=
EXTT0=
EXTT1=
EXTT2=
EXTT3=
EXTT4=
EXTT5=
EXTT6=
EXTT7=
EXTT8=
EXTT9=
EXTT10=
EXTT11=
EXTT12=
EXTT13=
EXTT14=
EXTT15=
EXTT16=
EXTT17=
EXTT18=
EXTT19=
PLAYORDER=
